<svg width="32" height="32" viewBox="0 0 32 32" fill="none" xmlns="http://www.w3.org/2000/svg">
<circle cx="16" cy="16" r="15" stroke="black" stroke-width="2"/>
<path d="M6.9723 23H4.44105L9.04972 9.90909H11.9773L16.5923 23H14.0611L10.5646 12.5938H10.4624L6.9723 23ZM7.0554 17.8672H13.9588V19.772H7.0554V17.8672ZM18.3166 23V9.90909H23.3279C24.274 9.90909 25.0602 10.0582 25.6866 10.3565C26.3173 10.6506 26.7882 11.0533 27.0993 11.5646C27.4146 12.076 27.5723 12.6555 27.5723 13.3033C27.5723 13.8359 27.47 14.2919 27.2654 14.6712C27.0609 15.0462 26.786 15.3509 26.4409 15.5852C26.0957 15.8196 25.71 15.9879 25.2839 16.0902V16.218C25.7484 16.2436 26.1937 16.3864 26.6199 16.6463C27.0502 16.902 27.4018 17.2642 27.6745 17.733C27.9473 18.2017 28.0836 18.7685 28.0836 19.4332C28.0836 20.1108 27.9196 20.7202 27.5914 21.2614C27.2633 21.7983 26.769 22.2223 26.1085 22.5334C25.448 22.8445 24.617 23 23.6156 23H18.3166ZM20.688 21.0185H23.2385C24.0993 21.0185 24.7193 20.8544 25.0985 20.5263C25.4821 20.1939 25.6738 19.7678 25.6738 19.2479C25.6738 18.8601 25.5779 18.5107 25.3862 18.1996C25.1944 17.8842 24.9217 17.6371 24.568 17.4581C24.2143 17.2749 23.7924 17.1832 23.3024 17.1832H20.688V21.0185ZM20.688 15.4766H23.0339C23.443 15.4766 23.8116 15.402 24.1397 15.2528C24.4679 15.0994 24.7257 14.8842 24.9132 14.6072C25.1049 14.326 25.2008 13.9936 25.2008 13.6101C25.2008 13.103 25.0218 12.6854 24.6639 12.3572C24.3102 12.0291 23.7839 11.8651 23.0851 11.8651H20.688V15.4766Z" fill="black"/>
</svg>
