<svg height="1em" width="1em" fill="currentColor" t="1703779279980" class="icon" viewBox="0 0 1024 1024" version="1.1" xmlns="http://www.w3.org/2000/svg" p-id="7530"><path d="M512.157589 62.389956c123.995035 0 236.644675 50.619888 317.512471 131.789558l0.506536 0.611937 0.408299 0.397043c80.870866 80.979336 130.970914 193.534831 130.970914 317.010027 0 124.101459-50.100048 236.234329-131.379213 318.03231h-0.506536l-0.435929 0.598635C748.391918 911.605164 636.152625 961.610044 512.157589 961.610044s-236.547461-50.004881-317.621964-131.379213h-0.411369l-0.506537-0.411369C112.750947 748.035808 62.444191 636.299981 62.444191 512.198521c0-123.899868 50.306756-236.234329 131.681088-317.406046l0.411369-0.611937 0.203638-0.411369c81.57797-80.759325 193.833637-131.379213 317.417303-131.379213z m273.079492 176.524412c-69.63394-69.63701-166.205393-113.156176-273.079492-113.156176-106.683764 0-203.347315 43.519166-273.188986 113.156176-70.045309 70.042239-113.156176 166.610622-113.156176 273.284153 0 106.480126 43.110867 203.048509 113.156176 272.887111 69.840648 70.248947 166.505221 113.359814 273.188986 113.359814 106.874099 0 203.445552-43.110867 273.079492-113.359814 70.042239-69.838601 113.153106-166.406984 113.153106-272.887111 0-106.672508-43.110867-203.241914-113.153106-273.284153z" fill="#000000" opacity=".6" p-id="7531"></path><path d="M512.020466 761.891374L262.120906 511.991814l249.871931-249.871931 249.89956 249.871931z" fill="#000000"  p-id="7532"></path></svg>
