<svg width="23" height="11" viewBox="0 0 23 11" fill="none" xmlns="http://www.w3.org/2000/svg">
<circle cx="5.5" cy="5.5" r="5" transform="matrix(1 0 0 -1 0 11)" stroke="black"/>
<circle cx="1.83333" cy="1.83333" r="1.83333" transform="matrix(1 0 0 -1 3.66667 7.33334)" fill="black"/>
<path d="M19 6L14.5 8.59808V3.40192L19 6Z" fill="black"/>
<path d="M19 6L14.5 8.59808V3.40192L19 6Z" fill="black"/>
<path d="M19 6L14.5 8.59808V3.40192L19 6Z" fill="black"/>
<path d="M23 6L18.5 8.59808V3.40192L23 6Z" fill="black"/>
<path d="M23 6L18.5 8.59808V3.40192L23 6Z" fill="black"/>
<path d="M23 6L18.5 8.59808V3.40192L23 6Z" fill="black"/>
</svg>
