<svg width="23" height="11" viewBox="0 0 23 11" fill="none" xmlns="http://www.w3.org/2000/svg">
<circle cx="5.5" cy="5.5" r="5" transform="matrix(-1 0 0 1 23.0001 6.10352e-05)" stroke="black"/>
<circle cx="1.83333" cy="1.83333" r="1.83333" transform="matrix(-1 0 0 1 19.3334 3.66672)" fill="black"/>
<path d="M4.00006 5.00006L8.50006 2.40199V7.59814L4.00006 5.00006Z" fill="black"/>
<path d="M4.00006 5.00006L8.50006 2.40199V7.59814L4.00006 5.00006Z" fill="black"/>
<path d="M4.00006 5.00006L8.50006 2.40199V7.59814L4.00006 5.00006Z" fill="black"/>
<path d="M6.10352e-05 5.00006L4.50006 2.40199L4.50006 7.59814L6.10352e-05 5.00006Z" fill="black"/>
<path d="M6.10352e-05 5.00006L4.50006 2.40199L4.50006 7.59814L6.10352e-05 5.00006Z" fill="black"/>
<path d="M6.10352e-05 5.00006L4.50006 2.40199L4.50006 7.59814L6.10352e-05 5.00006Z" fill="black"/>
</svg>
